<svg xmlns="http://www.w3.org/2000/svg" viewBox="0 0 100 100" role="img" aria-labelledby="title desc">
  <title id="title">SOStax lifebuoy logo</title>
  <desc id="desc">Red and white lifebuoy ring icon</desc>
  <path d="M 50 4 A 46 46 0 0 1 96 50 L 76 50 A 26 26 0 0 0 50 24 Z" fill="#ffffff"/>
  <path d="M 96 50 A 46 46 0 0 1 50 96 L 50 76 A 26 26 0 0 0 76 50 Z" fill="#c62828"/>
  <path d="M 50 96 A 46 46 0 0 1 4 50 L 24 50 A 26 26 0 0 0 50 76 Z" fill="#ffffff"/>
  <path d="M 4 50 A 46 46 0 0 1 50 4 L 50 24 A 26 26 0 0 0 24 50 Z" fill="#c62828"/>
  <circle cx="50" cy="50" r="46" fill="none" stroke="#8e0000" stroke-width="3"/>
  <circle cx="50" cy="50" r="26" fill="none" stroke="#8e0000" stroke-width="3"/>
  <line x1="50" y1="4" x2="50" y2="24" stroke="#8e0000" stroke-width="3"/>
  <line x1="50" y1="76" x2="50" y2="96" stroke="#8e0000" stroke-width="3"/>
  <line x1="4" y1="50" x2="24" y2="50" stroke="#8e0000" stroke-width="3"/>
  <line x1="76" y1="50" x2="96" y2="50" stroke="#8e0000" stroke-width="3"/>
</svg>
